<svg width="4087" height="1024" viewBox="0 0 4087 1024" fill="none" xmlns="http://www.w3.org/2000/svg">
<style>
@keyframes kf_right_transform_0 {
  0% {
    animation-timing-function: cubic-bezier(0.5, 0, 0.5, 1);
    transform: translateX(3829.607px) translateX(0px) translateY(0px);
  }
  100% {
    transform: translateX(3829.607px) translateX(-3062.607px) translateY(0px);
  }
}
#right {
  transform-origin: 0 0;
  animation: kf_right_transform_0 0.5s linear infinite;
}
@keyframes kf_Piana_Care_transform_0 {
  0% {
    animation-timing-function: cubic-bezier(0.5, 0, 0.5, 1);
    transform: translateX(0px) translateY(0px);
  }
  100% {
    transform: translateX(-2934px) translateY(0px);
  }
}
#Piana_Care {
  transform-origin: 0 0;
  animation: kf_Piana_Care_transform_0 0.5s linear infinite;
}
</style>
<g id="logo" clip-path="url(#clip0_112_75)">
<animate attributeName="width" values="4087; 1024" keyTimes="0; 1" keySplines="0.5 0 0.5 1" dur="0.5s" calcMode="spline" repeatCount="indefinite" />
<path id="right" transform="translate(3829.61)" d="M149.98 868.451V766.607H257.393V868.451C257.393 909.705 241.004 949.27 211.833 978.441C182.662 1007.61 143.098 1024 101.844 1024H0V916.587H101.844C114.61 916.587 126.854 911.516 135.881 902.488C144.908 893.461 149.98 881.218 149.98 868.451ZM149.98 155.549C149.98 142.782 144.908 130.539 135.881 121.512C126.854 112.484 114.611 107.413 101.844 107.413H0V0H101.844C143.098 9.64625e-05 182.662 16.3884 211.833 45.5594C241.004 74.7305 257.393 114.295 257.393 155.549V257.393H149.98V155.549Z" fill="#3C7B5F"/>
<path id="left" d="M0 868.451V766.607H107.413V868.451C107.413 881.218 112.484 893.461 121.512 902.488C130.539 911.516 142.782 916.587 155.549 916.587H257.393V1024H155.549C114.295 1024 74.7305 1007.61 45.5594 978.441C16.3884 949.27 9.64574e-05 909.705 0 868.451ZM512 281.418C544.98 262.675 582.757 253.231 621.237 254.577C674.595 256.443 725.156 278.906 762.308 317.251C799.459 355.595 820.312 406.842 820.491 460.232C820.669 513.586 800.186 564.936 763.338 603.52L763.339 603.521L587.812 787.858C578.043 798.122 566.289 806.294 553.266 811.88C540.235 817.469 526.204 820.351 512.026 820.351C497.847 820.351 483.817 817.469 470.786 811.88C457.764 806.295 446.012 798.125 436.244 787.862L260.667 603.527V603.526C223.816 564.941 203.331 513.589 203.509 460.232C203.688 406.842 224.541 355.595 261.692 317.251C298.844 278.906 349.405 256.443 402.763 254.577C441.243 253.231 479.02 262.675 512 281.418ZM617.484 361.924C591.884 361.029 566.933 370.086 547.867 387.192L512 419.374L476.133 387.192C457.067 370.086 432.116 361.029 406.516 361.924C380.917 362.82 356.66 373.597 338.836 391.993C321.012 410.39 311.006 434.976 310.921 460.591C310.836 485.806 320.371 510.087 337.552 528.501L338.376 529.374L338.41 529.409L338.444 529.445L512.026 711.684L685.55 529.451L685.587 529.413L685.624 529.374C703.324 510.859 713.165 486.206 713.079 460.591C712.994 434.976 702.989 410.39 685.164 391.993C667.34 373.597 643.083 362.82 617.484 361.924ZM0 155.549C0.000103697 114.295 16.3884 74.7305 45.5594 45.5594C74.7305 16.3884 114.295 0.000103692 155.549 0H257.393V107.413H155.549C142.782 107.413 130.539 112.484 121.512 121.512C112.484 130.539 107.413 142.782 107.413 155.549V257.393H0V155.549Z" fill="#3C7B5F"/>
<g id="Frame_14" clip-path="url(#clip1_112_75)" transform="translate(938 62)">
<path id="Piana_Care" d="M346.8 370.8C346.8 393.2 341.4 414.2 330.6 433.8C320.2 453.4 303.6 469.2 280.8 481.2C258.4 493.2 230 499.2 195.6 499.2H125.4V660H41.4V241.2H195.6C228 241.2 255.6 246.8 278.4 258C301.2 269.2 318.2 284.6 329.4 304.2C341 323.8 346.8 346 346.8 370.8ZM192 431.4C215.2 431.4 232.4 426.2 243.6 415.8C254.8 405 260.4 390 260.4 370.8C260.4 330 237.6 309.6 192 309.6H125.4V431.4H192ZM401.039 288C386.239 288 373.839 283.4 363.839 274.2C354.239 264.6 349.439 252.8 349.439 238.8C349.439 224.8 354.239 213.2 363.839 204C373.839 194.4 386.239 189.6 401.039 189.6C415.839 189.6 428.039 194.4 437.639 204C447.639 213.2 452.639 224.8 452.639 238.8C452.639 252.8 447.639 264.6 437.639 274.2C428.039 283.4 415.839 288 401.039 288ZM442.439 327.6V660H358.439V327.6H442.439ZM455.831 492.6C455.831 459 462.431 429.2 475.631 403.2C489.231 377.2 507.431 357.2 530.231 343.2C553.431 329.2 579.231 322.2 607.631 322.2C632.431 322.2 654.031 327.2 672.431 337.2C691.231 347.2 706.231 359.8 717.431 375V327.6H802.031V660H717.431V611.4C706.631 627 691.631 640 672.431 650.4C653.631 660.4 631.831 665.4 607.031 665.4C579.031 665.4 553.431 658.2 530.231 643.8C507.431 629.4 489.231 609.2 475.631 583.2C462.431 556.8 455.831 526.6 455.831 492.6ZM717.431 493.8C717.431 473.4 713.431 456 705.431 441.6C697.431 426.8 686.631 415.6 673.031 408C659.431 400 644.831 396 629.231 396C613.631 396 599.231 399.8 586.031 407.4C572.831 415 562.031 426.2 553.631 441C545.631 455.4 541.631 472.6 541.631 492.6C541.631 512.6 545.631 530.2 553.631 545.4C562.031 560.2 572.831 571.6 586.031 579.6C599.631 587.6 614.031 591.6 629.231 591.6C644.831 591.6 659.431 587.8 673.031 580.2C686.631 572.2 697.431 561 705.431 546.6C713.431 531.8 717.431 514.2 717.431 493.8ZM1020.27 322.8C1059.87 322.8 1091.87 335.4 1116.27 360.6C1140.67 385.4 1152.87 420.2 1152.87 465V660H1068.87V476.4C1068.87 450 1062.27 429.8 1049.07 415.8C1035.87 401.4 1017.87 394.2 995.072 394.2C971.872 394.2 953.472 401.4 939.872 415.8C926.672 429.8 920.072 450 920.072 476.4V660H836.072V327.6H920.072V369C931.272 354.6 945.472 343.4 962.672 335.4C980.272 327 999.472 322.8 1020.27 322.8ZM1163.15 492.6C1163.15 459 1169.75 429.2 1182.95 403.2C1196.55 377.2 1214.75 357.2 1237.55 343.2C1260.75 329.2 1286.55 322.2 1314.95 322.2C1339.75 322.2 1361.35 327.2 1379.75 337.2C1398.55 347.2 1413.55 359.8 1424.75 375V327.6H1509.35V660H1424.75V611.4C1413.95 627 1398.95 640 1379.75 650.4C1360.95 660.4 1339.15 665.4 1314.35 665.4C1286.35 665.4 1260.75 658.2 1237.55 643.8C1214.75 629.4 1196.55 609.2 1182.95 583.2C1169.75 556.8 1163.15 526.6 1163.15 492.6ZM1424.75 493.8C1424.75 473.4 1420.75 456 1412.75 441.6C1404.75 426.8 1393.95 415.6 1380.35 408C1366.75 400 1352.15 396 1336.55 396C1320.95 396 1306.55 399.8 1293.35 407.4C1280.15 415 1269.35 426.2 1260.95 441C1252.95 455.4 1248.95 472.6 1248.95 492.6C1248.95 512.6 1252.95 530.2 1260.95 545.4C1269.35 560.2 1280.15 571.6 1293.35 579.6C1306.95 587.6 1321.35 591.6 1336.55 591.6C1352.15 591.6 1366.75 587.8 1380.35 580.2C1393.95 572.2 1404.75 561 1412.75 546.6C1420.75 531.8 1424.75 514.2 1424.75 493.8ZM1617.96 450C1617.96 408.8 1627.16 372 1645.56 339.6C1664.36 306.8 1689.76 281.4 1721.76 263.4C1754.16 245 1790.36 235.8 1830.36 235.8C1877.16 235.8 1918.16 247.8 1953.36 271.8C1988.56 295.8 2013.16 329 2027.16 371.4H1930.56C1920.96 351.4 1907.36 336.4 1889.76 326.4C1872.56 316.4 1852.56 311.4 1829.76 311.4C1805.36 311.4 1783.56 317.2 1764.36 328.8C1745.56 340 1730.76 356 1719.96 376.8C1709.56 397.6 1704.36 422 1704.36 450C1704.36 477.6 1709.56 502 1719.96 523.2C1730.76 544 1745.56 560.2 1764.36 571.8C1783.56 583 1805.36 588.6 1829.76 588.6C1852.56 588.6 1872.56 583.6 1889.76 573.6C1907.36 563.2 1920.96 548 1930.56 528H2027.16C2013.16 570.8 1988.56 604.2 1953.36 628.2C1918.56 651.8 1877.56 663.6 1830.36 663.6C1790.36 663.6 1754.16 654.6 1721.76 636.6C1689.76 618.2 1664.36 592.8 1645.56 560.4C1627.16 528 1617.96 491.2 1617.96 450ZM2029.31 492.6C2029.31 459 2035.91 429.2 2049.11 403.2C2062.71 377.2 2080.91 357.2 2103.71 343.2C2126.91 329.2 2152.71 322.2 2181.11 322.2C2205.91 322.2 2227.51 327.2 2245.91 337.2C2264.71 347.2 2279.71 359.8 2290.91 375V327.6H2375.51V660H2290.91V611.4C2280.11 627 2265.11 640 2245.91 650.4C2227.11 660.4 2205.31 665.4 2180.51 665.4C2152.51 665.4 2126.91 658.2 2103.71 643.8C2080.91 629.4 2062.71 609.2 2049.11 583.2C2035.91 556.8 2029.31 526.6 2029.31 492.6ZM2290.91 493.8C2290.91 473.4 2286.91 456 2278.91 441.6C2270.91 426.8 2260.11 415.6 2246.51 408C2232.91 400 2218.31 396 2202.71 396C2187.11 396 2172.71 399.8 2159.51 407.4C2146.31 415 2135.51 426.2 2127.11 441C2119.11 455.4 2115.11 472.6 2115.11 492.6C2115.11 512.6 2119.11 530.2 2127.11 545.4C2135.51 560.2 2146.31 571.6 2159.51 579.6C2173.11 587.6 2187.51 591.6 2202.71 591.6C2218.31 591.6 2232.91 587.8 2246.51 580.2C2260.11 572.2 2270.91 561 2278.91 546.6C2286.91 531.8 2290.91 514.2 2290.91 493.8ZM2493.55 379.2C2504.35 361.6 2518.35 347.8 2535.55 337.8C2553.15 327.8 2573.15 322.8 2595.55 322.8V411H2573.35C2546.95 411 2526.95 417.2 2513.35 429.6C2500.15 442 2493.55 463.6 2493.55 494.4V660H2409.55V327.6H2493.55V379.2ZM2913.13 486.6C2913.13 498.6 2912.33 509.4 2910.73 519H2667.73C2669.73 543 2678.13 561.8 2692.93 575.4C2707.73 589 2725.93 595.8 2747.53 595.8C2778.73 595.8 2800.93 582.4 2814.13 555.6H2904.73C2895.13 587.6 2876.73 614 2849.53 634.8C2822.33 655.2 2788.93 665.4 2749.33 665.4C2717.33 665.4 2688.53 658.4 2662.93 644.4C2637.73 630 2617.93 609.8 2603.53 583.8C2589.53 557.8 2582.53 527.8 2582.53 493.8C2582.53 459.4 2589.53 429.2 2603.53 403.2C2617.53 377.2 2637.13 357.2 2662.33 343.2C2687.53 329.2 2716.53 322.2 2749.33 322.2C2780.93 322.2 2809.13 329 2833.93 342.6C2859.13 356.2 2878.53 375.6 2892.13 400.8C2906.13 425.6 2913.13 454.2 2913.13 486.6ZM2826.13 462.6C2825.73 441 2817.93 423.8 2802.73 411C2787.53 397.8 2768.93 391.2 2746.93 391.2C2726.13 391.2 2708.53 397.6 2694.13 410.4C2680.13 422.8 2671.53 440.2 2668.33 462.6H2826.13Z" fill="#3C7B5F"/>
</g>
</g>
<defs>
<clipPath id="clip0_112_75">
<rect width="4087" height="1024" fill="white"/>
</clipPath>
<clipPath id="clip1_112_75">
<rect width="2934" height="900" fill="white"/>
</clipPath>
</defs>
</svg>
